<mxfile host="Electron" agent="Mozilla/5.0 (Windows NT 10.0; Win64; x64) AppleWebKit/537.36 (KHTML, like Gecko) draw.io/26.0.9 Chrome/128.0.6613.186 Electron/32.2.5 Safari/537.36" version="26.0.9">
  <diagram name="Page-1" id="Pfw512TBdEc4AL0B_62l">
    <mxGraphModel dx="453" dy="768" grid="1" gridSize="10" guides="1" tooltips="1" connect="1" arrows="1" fold="1" page="1" pageScale="1" pageWidth="827" pageHeight="1169" math="0" shadow="0">
      <root>
        <mxCell id="0" />
        <mxCell id="1" parent="0" />
        <mxCell id="2" value="" style="rounded=0;whiteSpace=wrap;html=1;strokeColor=default;fillColor=default;movable=0;resizable=0;rotatable=0;deletable=0;editable=0;locked=1;connectable=0;" parent="1" vertex="1">
          <mxGeometry x="930" y="160" width="590" height="610" as="geometry" />
        </mxCell>
        <mxCell id="IJmXjw1ShNEismxhBZoX-8" style="edgeStyle=orthogonalEdgeStyle;rounded=0;orthogonalLoop=1;jettySize=auto;html=1;exitX=0.5;exitY=1;exitDx=0;exitDy=0;entryX=0.5;entryY=0;entryDx=0;entryDy=0;" parent="1" source="IJmXjw1ShNEismxhBZoX-3" target="IJmXjw1ShNEismxhBZoX-4" edge="1">
          <mxGeometry relative="1" as="geometry" />
        </mxCell>
        <mxCell id="IJmXjw1ShNEismxhBZoX-3" value="&lt;b&gt;&lt;font style=&quot;font-size: 24px;&quot;&gt;Start&lt;/font&gt;&lt;/b&gt;" style="rounded=1;whiteSpace=wrap;html=1;arcSize=50;strokeWidth=2;" parent="1" vertex="1">
          <mxGeometry x="1005.75" y="200" width="100" height="50" as="geometry" />
        </mxCell>
        <mxCell id="Rjor2WSi_NKT8hvH7R_Y-3" style="edgeStyle=orthogonalEdgeStyle;rounded=0;orthogonalLoop=1;jettySize=auto;html=1;exitX=0.5;exitY=1;exitDx=0;exitDy=0;entryX=0.5;entryY=0;entryDx=0;entryDy=0;" parent="1" source="IJmXjw1ShNEismxhBZoX-4" target="Rjor2WSi_NKT8hvH7R_Y-2" edge="1">
          <mxGeometry relative="1" as="geometry" />
        </mxCell>
        <mxCell id="IJmXjw1ShNEismxhBZoX-4" value="&lt;b&gt;&lt;font style=&quot;font-size: 24px;&quot;&gt;&lt;font style=&quot;&quot;&gt;En&lt;/font&gt;ter n&lt;/font&gt;&lt;/b&gt;" style="shape=parallelogram;perimeter=parallelogramPerimeter;whiteSpace=wrap;html=1;fixedSize=1;align=center;strokeWidth=2;" parent="1" vertex="1">
          <mxGeometry x="995.25" y="290" width="121" height="50" as="geometry" />
        </mxCell>
        <mxCell id="IJmXjw1ShNEismxhBZoX-11" style="edgeStyle=orthogonalEdgeStyle;rounded=0;orthogonalLoop=1;jettySize=auto;html=1;exitX=0.5;exitY=1;exitDx=0;exitDy=0;entryX=0.5;entryY=0;entryDx=0;entryDy=0;" parent="1" source="IJmXjw1ShNEismxhBZoX-6" target="IJmXjw1ShNEismxhBZoX-7" edge="1">
          <mxGeometry relative="1" as="geometry" />
        </mxCell>
        <mxCell id="IJmXjw1ShNEismxhBZoX-6" value="&lt;span style=&quot;font-size: 24px;&quot;&gt;&lt;b&gt;Print Sum&lt;/b&gt;&lt;/span&gt;" style="shape=parallelogram;perimeter=parallelogramPerimeter;whiteSpace=wrap;html=1;fixedSize=1;align=center;strokeWidth=2;" parent="1" vertex="1">
          <mxGeometry x="977.25" y="590" width="157" height="50" as="geometry" />
        </mxCell>
        <mxCell id="IJmXjw1ShNEismxhBZoX-7" value="&lt;span style=&quot;font-size: 24px;&quot;&gt;&lt;b&gt;End&lt;/b&gt;&lt;/span&gt;" style="rounded=1;whiteSpace=wrap;html=1;arcSize=50;strokeWidth=2;" parent="1" vertex="1">
          <mxGeometry x="1015.76" y="680" width="80" height="50" as="geometry" />
        </mxCell>
        <mxCell id="hRbZlNsOpyDJTE5oyBbc-7" style="edgeStyle=orthogonalEdgeStyle;rounded=0;orthogonalLoop=1;jettySize=auto;html=1;exitX=0.5;exitY=1;exitDx=0;exitDy=0;entryX=0.5;entryY=0;entryDx=0;entryDy=0;" edge="1" parent="1" source="lcP_tkz22S2U3AyWu_y0-2" target="IJmXjw1ShNEismxhBZoX-6">
          <mxGeometry relative="1" as="geometry" />
        </mxCell>
        <mxCell id="lcP_tkz22S2U3AyWu_y0-2" value="&lt;b&gt;&lt;font style=&quot;font-size: 24px;&quot;&gt;CalculateSum&lt;/font&gt;&lt;/b&gt;" style="whiteSpace=wrap;html=1;strokeWidth=2;align=center;rounded=0;" parent="1" vertex="1">
          <mxGeometry x="970" y="500" width="171.5" height="50" as="geometry" />
        </mxCell>
        <mxCell id="Rjor2WSi_NKT8hvH7R_Y-6" style="edgeStyle=orthogonalEdgeStyle;rounded=0;orthogonalLoop=1;jettySize=auto;html=1;exitX=0.5;exitY=1;exitDx=0;exitDy=0;entryX=0.5;entryY=0;entryDx=0;entryDy=0;" parent="1" source="lcP_tkz22S2U3AyWu_y0-3" target="Rjor2WSi_NKT8hvH7R_Y-5" edge="1">
          <mxGeometry relative="1" as="geometry" />
        </mxCell>
        <mxCell id="lcP_tkz22S2U3AyWu_y0-3" value="&lt;span style=&quot;font-size: 24px;&quot;&gt;&lt;b&gt;Sum = (n*(n+1)) / 2&lt;/b&gt;&lt;/span&gt;" style="shape=label;whiteSpace=wrap;html=1;fixedSize=1;align=center;strokeWidth=2;rounded=0;" parent="1" vertex="1">
          <mxGeometry x="1250" y="420" width="223.5" height="50" as="geometry" />
        </mxCell>
        <mxCell id="Rjor2WSi_NKT8hvH7R_Y-4" style="edgeStyle=orthogonalEdgeStyle;rounded=0;orthogonalLoop=1;jettySize=auto;html=1;entryX=0.5;entryY=0;entryDx=0;entryDy=0;" parent="1" source="Rjor2WSi_NKT8hvH7R_Y-2" target="lcP_tkz22S2U3AyWu_y0-2" edge="1">
          <mxGeometry relative="1" as="geometry" />
        </mxCell>
        <mxCell id="Rjor2WSi_NKT8hvH7R_Y-2" value="&lt;span style=&quot;font-size: 24px;&quot;&gt;&lt;b&gt;Count = 1&lt;br&gt;Sum = 0&lt;/b&gt;&lt;/span&gt;" style="shape=label;whiteSpace=wrap;html=1;fixedSize=1;align=center;strokeWidth=2;rounded=0;" parent="1" vertex="1">
          <mxGeometry x="985.88" y="380" width="139.75" height="80" as="geometry" />
        </mxCell>
        <mxCell id="Rjor2WSi_NKT8hvH7R_Y-5" value="&lt;span style=&quot;font-size: 24px;&quot;&gt;&lt;b&gt;return Sum&lt;/b&gt;&lt;/span&gt;" style="shape=label;whiteSpace=wrap;html=1;fixedSize=1;align=center;strokeWidth=2;rounded=0;" parent="1" vertex="1">
          <mxGeometry x="1291.75" y="510" width="140" height="50" as="geometry" />
        </mxCell>
        <mxCell id="hRbZlNsOpyDJTE5oyBbc-2" style="edgeStyle=orthogonalEdgeStyle;rounded=0;orthogonalLoop=1;jettySize=auto;html=1;exitX=0.5;exitY=1;exitDx=0;exitDy=0;" edge="1" source="hRbZlNsOpyDJTE5oyBbc-3" parent="1" target="lcP_tkz22S2U3AyWu_y0-3">
          <mxGeometry relative="1" as="geometry">
            <mxPoint x="1410.4300812752017" y="420" as="targetPoint" />
          </mxGeometry>
        </mxCell>
        <mxCell id="hRbZlNsOpyDJTE5oyBbc-3" value="&lt;b&gt;&lt;font style=&quot;font-size: 24px;&quot;&gt;Start&lt;/font&gt;&lt;/b&gt;" style="rounded=1;whiteSpace=wrap;html=1;arcSize=50;strokeWidth=2;" vertex="1" parent="1">
          <mxGeometry x="1311" y="330" width="100" height="50" as="geometry" />
        </mxCell>
        <mxCell id="hRbZlNsOpyDJTE5oyBbc-4" style="edgeStyle=orthogonalEdgeStyle;rounded=0;orthogonalLoop=1;jettySize=auto;html=1;exitX=0.5;exitY=1;exitDx=0;exitDy=0;entryX=0.5;entryY=0;entryDx=0;entryDy=0;" edge="1" target="hRbZlNsOpyDJTE5oyBbc-5" parent="1" source="Rjor2WSi_NKT8hvH7R_Y-5">
          <mxGeometry relative="1" as="geometry">
            <mxPoint x="1361.25" y="570" as="sourcePoint" />
          </mxGeometry>
        </mxCell>
        <mxCell id="hRbZlNsOpyDJTE5oyBbc-5" value="&lt;span style=&quot;font-size: 24px;&quot;&gt;&lt;b&gt;End&lt;/b&gt;&lt;/span&gt;" style="rounded=1;whiteSpace=wrap;html=1;arcSize=50;strokeWidth=2;" vertex="1" parent="1">
          <mxGeometry x="1321.75" y="600" width="80" height="50" as="geometry" />
        </mxCell>
        <mxCell id="hRbZlNsOpyDJTE5oyBbc-6" value="&lt;b&gt;&lt;font style=&quot;font-size: 24px;&quot;&gt;CalculateSum&lt;/font&gt;&lt;/b&gt;" style="text;html=1;align=center;verticalAlign=middle;whiteSpace=wrap;rounded=0;" vertex="1" parent="1">
          <mxGeometry x="1276.75" y="290" width="170" height="40" as="geometry" />
        </mxCell>
      </root>
    </mxGraphModel>
  </diagram>
</mxfile>
